<svg width="201" height="32" viewBox="0 0 201 32" fill="none" xmlns="http://www.w3.org/2000/svg">
<path d="M3.73478 19.4007C2.57887 19.2062 1.82155 18.9728 1.33527 18.5837C0.856966 18.2141 0.398588 17.4748 0.398588 17.0857C0.396595 16.8912 0.378659 16.8912 0.199294 17.0857C-1.85905e-07 17.2803 0 17.2803 0 16.8912C0 16.6967 0 16.5799 0 16.5799C0 16.5877 4.98634 16.5877 10.9672 16.5799L21.8427 16.5663L22.5601 15.866V14.2124C22.5601 12.6367 22.5462 12.5394 22.2612 12.2242L21.9622 11.8935H12.9621C3.98987 11.8935 3.95998 11.8935 3.13689 11.5628C2.10056 11.2127 1.44289 10.629 1.18381 9.77308C0.924725 8.93656 0.82508 6.51651 0.964586 5.14308C1.16388 3.91749 1.34324 3.29497 1.9212 2.77945C3.03725 1.76785 3.53548 1.72894 13.6317 1.72894C22.0918 1.73088 23.0524 1.72894 24.2621 2.15692C25.3781 2.50709 26.544 3.65486 26.3627 4.20541V4.4583H6.14823L5.84929 4.75011C5.57028 5.02246 5.55035 5.10028 5.55035 6.61767C5.55234 7.97944 5.55035 8.23233 5.7895 8.48523L6.02865 8.77704H14.8434C22.5063 8.77704 23.7559 8.77704 24.4195 9.0494C25.8545 9.41902 26.4125 9.82755 26.8928 10.8391C27.1519 11.4033 27.1718 11.5589 27.1718 14.086C27.1718 17.2161 27.1718 17.6635 26.2152 18.4339C25.6173 18.9591 24.8998 19.2315 23.5945 19.4066C22.4784 19.6011 4.57381 19.6011 3.56338 19.3988L3.73478 19.4007ZM35.4724 19.4007C35.4724 19.4007 35.4724 15.4575 35.4724 10.7341V2.14719L35.7514 1.89429L36.0304 1.62194H58.7679L59.585 1.89429C60.6214 2.24446 61.279 2.80862 61.578 3.52841C61.7773 4.01476 61.7972 4.4622 61.7972 6.92504V9.76141L61.4783 10.4034C60.9203 11.4928 59.884 11.9791 57.7216 12.1737C56.9643 12.1737 52.9704 12.3682 48.8331 12.3682L41.3077 12.3702L40.67 13.1094V19.4727H38.1449C36.7499 19.4727 35.588 19.4727 35.5441 19.4727L35.4724 19.4007ZM55.7048 9.38789C56.5019 9.03772 56.6414 8.70701 56.6414 6.93088C56.6414 5.58857 56.6215 5.39403 56.3824 5.10223C55.8443 4.40189 56.0635 4.42134 48.3249 4.38243H41.226L40.9072 4.75206C40.5883 5.12168 40.5883 5.14113 40.5883 7.01258V8.8996L41.4253 9.71666H48.303C54.7123 9.71666 55.2145 9.71666 55.6968 9.46376L55.7048 9.38789ZM81.9339 17.8542C81.0371 16.648 80.5787 16.1228 80.1203 15.8446L79.5224 15.4555H71.73C67.3894 15.4555 63.9575 15.4555 63.9815 15.261C64.0014 15.261 64.5195 14.5606 65.1174 13.8409L66.2136 12.5375L71.5507 12.5316C76.7443 12.5277 76.8957 12.5199 77.111 12.2787C77.5494 11.7924 77.4298 11.52 75.0483 8.14284C73.7927 6.3531 72.7624 4.79875 72.7584 4.68592C72.7504 4.45247 75.1001 1.5383 75.2934 1.53635C75.2934 1.53635 79.3331 6.63518 87.2471 17.0274L89.0407 19.3696H83.1516L81.9359 17.755L81.9339 17.8542ZM100.225 19.4105C98.6706 19.2159 97.5765 18.8463 97.1141 18.3405C96.9148 18.146 96.7753 17.8542 96.6358 17.5235L96.3568 16.9398V4.17622L96.7156 3.47589C97.154 2.61992 97.712 2.2114 98.832 1.91959C99.5495 1.72505 100.426 1.7056 109.61 1.7056H119.599L120.475 1.97795C120.994 2.17249 121.532 2.40593 121.791 2.61992C122.249 3.02845 122.668 3.76769 122.668 4.21513L122.672 4.48749H112.496C103.607 4.48749 102.272 4.48748 101.959 4.68202L101.6 4.87656V15.9594L102.358 16.5819H122.56V16.9126C122.56 17.5157 121.982 18.4495 121.384 18.7802C120.188 19.461 120.308 19.4416 110.028 19.4805C104.835 19.4941 100.418 19.4844 100.219 19.4805L100.225 19.4105ZM131.241 19.4066C131.241 19.4066 131.241 16.7297 131.241 13.5549V7.7849H147.95V10.5084H137.222L136.584 11.1699V16.1345L137.262 16.757H156.137V19.4027H143.741C136.927 19.4027 131.311 19.4027 131.267 19.4027L131.241 19.4066ZM131.16 1.63751H156.346V4.59448H131.16V1.63751ZM3.85236 19.4883C2.43737 19.2743 1.79166 19.0603 1.18181 18.5934C0.783226 18.2822 0.185343 17.2511 0.125555 16.7648V16.473H10.9632C16.9221 16.4574 21.9204 16.473 22.0699 16.473C22.5681 16.2784 22.7076 15.8504 22.7076 14.1755C22.7076 12.7942 22.6877 12.5997 22.4684 12.4052C22.2691 12.2106 22.1097 12.1328 21.9503 12.1134C21.751 12.1134 17.7511 12.1134 12.9561 12.1134H4.23899L3.42188 11.841C2.30584 11.4714 1.62823 10.8294 1.32331 9.8684C1.0443 8.97352 1.00444 5.27731 1.32331 4.28711C1.66211 2.9448 2.55894 2.26976 4.4343 1.95266C5.90908 1.69976 22.0838 1.69976 23.5068 1.94293C24.6826 2.13747 25.4001 2.44873 26.0757 3.07125C26.7333 3.65486 26.9725 4.14121 26.7732 4.49137L26.5739 4.74427H16.4697C6.5249 4.74427 6.35948 4.74817 6.12033 4.97772C5.9011 5.19171 5.88118 5.3668 5.88118 6.72856C5.88118 8.09033 5.90111 8.28486 6.14026 8.55721L6.39934 8.86847L14.2914 8.87042C18.632 8.87236 22.6976 8.87041 23.3314 9.06495C24.9855 9.25949 25.978 9.5513 26.5819 10.1349C27.399 10.9325 27.5186 11.4189 27.5186 14.442C27.5186 16.6772 27.5186 17.1305 27.2993 17.6771C26.8609 18.9027 25.8445 19.5253 23.8675 19.8365C23.1899 20.0311 20.34 20.031 14.0861 20.031C6.16816 20.031 5.10791 20.033 3.91613 19.8365L3.85236 19.4883ZM35.2731 10.9111L35.2671 2.10245L35.9049 1.51884H58.6842L59.5213 1.79119C60.5377 2.1219 61.3149 2.78333 61.6218 3.56148C61.8211 4.04783 61.841 4.49527 61.841 7.0087C61.841 9.80615 61.8311 9.92286 61.562 10.4656C60.9841 11.5939 59.868 12.1387 57.6578 12.3332C56.9603 12.3332 52.9804 12.5277 48.8072 12.5277L41.22 12.5316L40.961 12.8429C40.7218 13.1541 40.7019 13.2514 40.7417 16.4477V19.7373H35.2372L35.2332 10.9267L35.2731 10.9111ZM55.631 9.29646C56.4083 8.94629 56.5079 8.65448 56.5079 6.95811C56.5079 5.324 56.5079 5.0711 55.8104 4.73844C55.4517 4.5439 54.8338 4.52445 48.3647 4.50499H41.3117L41.0128 4.7968C40.7138 5.0886 40.7138 5.12752 40.7138 6.97368V8.86069L41.5907 9.59993H48.3907C54.4253 9.59993 55.2384 9.59993 55.633 9.36649L55.631 9.29646ZM83.0021 19.6284C83.02 19.6284 82.4839 18.7918 81.8063 17.8775C80.7899 16.4963 80.4711 16.1656 79.9728 15.8991L79.3749 15.5878H71.5507C67.2499 15.5878 63.7284 15.5878 63.7284 15.5878C63.7284 15.5878 64.2864 14.868 64.964 14.051L66.1996 12.5919H76.9376L77.1369 12.2418C77.3362 11.9499 77.3362 11.8332 77.1369 11.6192C77.1369 11.4247 76.0009 9.92675 74.7732 8.1837C73.5575 6.43286 72.5531 4.94076 72.5531 4.85321C72.5531 4.85321 73.151 3.97779 73.9083 3.08292C75.2037 1.52662 75.2635 1.46826 75.4628 1.68225C75.6621 1.87679 78.6814 5.83758 82.3544 10.6465C86.0274 15.4575 89.1145 19.4863 89.2101 19.5992C89.4094 19.7937 89.2161 19.8132 86.1749 19.8132C84.4211 19.8132 82.9802 19.8132 82.9981 19.8132L83.0021 19.6284ZM101.12 19.6284C101.1 19.6284 100.602 19.4338 100.044 19.4338C97.989 19.1809 97.0663 18.6751 96.5242 17.5079L96.2452 16.8854V10.5629C96.2452 4.8182 96.2651 4.184 96.4644 3.64124C96.7235 2.88254 97.4011 2.24057 98.2182 1.92931C99.4339 1.48188 100.48 1.44297 110.305 1.48188C120.659 1.48188 120.38 1.48188 121.615 2.24058C122.233 2.6102 122.871 3.64125 122.811 4.1665V4.4583H112.508C104.02 4.4583 102.166 4.45831 102.003 4.6723C101.804 4.86684 101.804 5.35317 101.804 10.2341V15.6345L102.481 16.257H122.749V16.5877C122.749 17.93 121.673 18.9261 119.889 19.2062C119.431 19.2062 118.754 19.4007 118.395 19.4591C117.757 19.6536 101.287 19.6536 101.18 19.4591L101.12 19.6284ZM131.072 13.6813L131.092 7.68374H147.99V10.5629H137.134L136.895 10.8352C136.676 11.0881 136.656 11.3216 136.656 13.5296C136.656 15.936 136.658 15.9458 136.955 16.2356L137.254 16.5274H146.571C151.697 16.5274 155.98 16.5274 156.087 16.5274C156.287 16.5274 156.287 16.8192 156.287 18.0643L156.269 19.5233H131.116V13.5238L131.072 13.6813ZM131.092 4.52056C131.092 4.52056 131.092 3.72295 131.072 2.96426V1.54413H156.44V4.73454H143.781C133.467 4.73454 131.114 4.73455 131.064 4.54001L131.092 4.52056ZM3.93606 19.5603C2.10256 19.3268 1.01839 18.7821 0.504215 17.8483C0.0259088 16.9924 -0.0338812 16.5449 0.26506 16.3893C0.464355 16.3893 3.88225 16.1948 11.3458 16.1948H22.1835L22.3827 15.9419C22.6418 15.5722 22.6618 12.5841 22.3987 12.2379C22.1994 12.0239 21.9602 12.0044 13.3487 11.9461C3.87827 11.9461 3.83044 11.9461 2.65261 11.2652C2.01487 10.9539 1.69599 10.6038 1.35719 9.88396C1.09811 9.3198 1.07818 9.16417 1.07818 6.62546V3.95834L1.43691 3.25801C1.91522 2.36314 2.59282 1.87679 3.88823 1.58499C4.7452 1.39045 5.5623 1.37099 13.9068 1.37099C22.1416 1.37099 23.0603 1.37099 23.8037 1.58499C24.8201 1.83789 25.5176 2.18805 26.0537 2.65494C26.7313 3.27746 26.9904 4.03615 26.6516 4.36687C26.4523 4.56141 24.1166 4.56141 16.4737 4.56141C9.78934 4.56141 6.36347 4.56141 6.20602 4.75594C5.9868 4.95048 5.96687 5.0283 5.96687 6.50679C5.96687 8.02418 5.9868 8.16035 6.22595 8.35489C6.46511 8.56888 6.84377 8.58834 15.3975 8.6467C22.9547 8.6467 24.4076 8.6467 24.9198 8.8996C26.1355 9.26922 26.7931 9.75556 27.1837 10.631C27.6222 11.5648 27.7617 14.158 27.5225 16.2667C27.3033 18.1538 26.6457 18.928 24.7783 19.4358C23.8416 19.6887 23.722 19.6887 14.2695 19.7081C9.0081 19.7198 4.36056 19.7081 3.94005 19.7081L3.93606 19.5603ZM35.2711 10.7711V1.85734L35.6896 1.60444C36.0882 1.35154 36.1679 1.35154 46.6189 1.35154C53.1757 1.35154 57.5203 1.35153 58.1461 1.54607C59.4615 1.74061 60.3862 2.05187 61.0239 2.63549C61.8809 3.39419 61.9407 3.74435 61.9008 7.25381V10.2536L61.5421 10.8372C61.1236 11.4986 60.2467 12.0822 59.3239 12.3157C58.9054 12.5102 56.3883 12.5102 50.0867 12.5297C41.7801 12.5297 41.4014 12.5297 41.1583 12.8215C40.9191 13.0355 40.8992 13.1327 40.8992 16.3971V19.747H35.3289V10.8333L35.2711 10.7711ZM55.3042 9.27311C55.6031 9.27311 55.9619 9.02022 56.1213 8.84513C56.3804 8.57278 56.4003 8.41715 56.4402 7.17211C56.4402 5.47963 56.2409 5.01274 55.643 4.70537C55.2245 4.51083 54.5469 4.51083 48.2432 4.51083H41.3018L41.0626 4.78318C40.8633 5.03608 40.8235 5.26953 40.8235 6.94644V8.83345L41.4612 9.41707H48.1097C52.536 9.41707 54.9315 9.41707 55.2843 9.22253L55.3042 9.27311ZM81.8243 18.0137C80.9474 16.8076 80.4691 16.2628 80.0705 16.0119L79.5324 15.6812L71.6364 15.6792C66.656 15.6773 63.7184 15.6792 63.6725 15.4847C63.6725 15.2902 65.5658 12.9246 66.0601 12.4985C66.2793 12.304 66.7377 12.2846 71.6085 12.2846C76.8818 12.2846 76.9216 12.2826 77.0572 12.0317C77.0572 11.8371 77.2564 11.7009 77.0572 11.5842C77.0572 11.3897 75.961 9.91119 74.6856 8.08449C73.4101 6.27529 72.3678 4.71899 72.3678 4.64506C72.3678 4.43107 75.0423 1.28539 75.2157 1.28539C75.415 1.28539 88.8614 18.8074 89.246 19.4572C89.246 19.6517 88.668 19.6517 86.145 19.6517L82.9602 19.6459L81.7446 17.9923L81.8243 18.0137ZM99.6492 19.4922C97.7758 19.2004 96.881 18.6362 96.3847 17.4359C96.1256 16.7939 96.1057 16.6578 96.0659 11.0667C96.0659 5.11195 96.0838 4.09257 96.5242 3.25606C97.0623 2.24447 98.1983 1.66085 100.078 1.48577C101.572 1.29123 117.713 1.29123 119.088 1.48965C120.324 1.68419 121.324 1.93709 121.894 2.36507C122.353 2.71524 122.931 3.7463 122.931 4.23264V4.56335H112.755C101.957 4.56335 102.029 4.56141 101.815 5.10806C101.815 5.3026 101.815 7.62538 101.815 10.4695V15.6364L102.493 16.259H112.633C124.045 16.259 123.052 16.259 122.779 17.1927C122.421 18.5545 121.464 19.214 119.431 19.5097C117.737 19.7626 101.345 19.7431 99.7229 19.5019L99.6492 19.4922ZM131.068 13.6191V7.56312H148.02V10.5785H142.647C137.392 10.5785 137.264 10.5824 136.951 10.8314L136.632 11.0843V16.1306L136.951 16.3835C137.27 16.6169 137.35 16.6364 146.683 16.6364C155.426 16.6364 156.105 16.65 156.179 16.8309C156.179 17.0254 156.179 17.6285 156.179 18.3678L156.159 19.7101H130.879V13.6522L131.068 13.6191ZM131.092 4.6256C131.092 4.6256 131.092 3.78909 131.072 2.93313V1.39628H156.5V4.70342H143.813C133.455 4.70342 131.116 4.70536 131.066 4.50888L131.092 4.6256ZM3.64908 19.5408C1.75578 19.2879 0.595889 18.5292 0.221215 17.2686C0.0219211 16.7239 0.0219211 16.5488 0.221215 16.4126C0.42051 16.2181 1.87536 16.2181 11.2402 16.2181H22.1137L22.3728 15.9068C22.592 15.6345 22.6319 15.44 22.6319 14.0977C22.6319 12.7942 22.6319 12.5608 22.3927 12.3079L22.1536 12.0356H13.2132C3.96396 12.0356 3.76866 12.0355 2.77816 11.4519C1.30339 10.7127 0.845008 9.36649 0.984514 6.06713C0.984514 3.93305 1.26352 3.29886 2.04077 2.5635C2.67851 1.96044 3.29633 1.70754 4.65153 1.513C5.20955 1.513 8.54773 1.31846 14.5206 1.513C23.4968 1.513 23.5387 1.513 24.3418 1.80481C25.418 2.15497 26.2351 2.71914 26.6656 3.40002C26.9845 3.90582 27.0044 3.98363 26.8649 4.31435L26.6656 4.66452H16.5992C7.6808 4.66452 6.49899 4.66451 6.26183 4.85905C6.00275 5.05359 5.98282 5.1314 5.98282 6.55152C5.98282 7.66039 5.98282 8.12728 6.18211 8.28292C6.3814 8.49691 6.62056 8.51636 15.1703 8.57472C24.5152 8.57472 24.7524 8.57472 25.9023 9.23614C27.3173 9.93648 27.676 10.9675 27.676 14.2611C27.676 17.4437 27.3173 18.4358 25.8624 19.1576C24.7265 19.7217 24.7264 19.7217 14.2994 19.7606C8.90646 19.7743 4.12938 19.7606 3.68296 19.7606L3.64908 19.5408ZM35.1515 10.8177L35.1475 1.96628L35.9049 1.34376H58.7002L59.5173 1.61611C60.5735 1.96628 61.2711 2.49153 61.6637 3.23077C61.9626 3.81439 61.9825 3.83383 61.9825 6.77719C61.9825 10.0727 61.9825 10.3411 61.2252 11.1154C60.707 11.6601 60.149 11.9713 59.1167 12.2437C58.4391 12.4382 57.323 12.4382 49.8794 12.4966C41.4512 12.4966 41.4034 12.4966 41.1324 12.7884C40.8534 13.0413 40.8533 13.0608 40.8533 16.327V19.6167H35.1695L35.1635 10.7633L35.1515 10.8177ZM55.629 9.12527C55.8682 8.93073 56.1273 8.814 56.207 8.69728C56.207 8.50274 56.4063 7.8024 56.4063 6.92698C56.4063 5.17614 56.207 4.88434 55.4696 4.66257C55.1906 4.66257 52.5101 4.46803 48.2233 4.46803L41.4213 4.46609L41.1623 4.77734C40.9231 5.06915 40.9032 5.24424 40.9032 6.85501V8.6253L41.6206 9.32563H48.4325C54.4791 9.32563 55.2942 9.32563 55.6888 9.09219L55.629 9.12527ZM81.8043 18.037C80.9474 16.8698 80.4292 16.3056 80.0107 16.0275L79.4327 15.6384H71.5148C65.1832 15.6384 63.6008 15.6384 63.6008 15.4439C63.6008 15.2493 65.1952 13.302 65.8728 12.6114L66.1916 12.2807H71.4709C75.417 12.2807 76.7901 12.2807 76.8977 12.0861C77.2365 11.7554 76.8977 11.308 74.6856 8.01056C72.852 5.39403 72.3518 4.59448 72.4395 4.44469C72.7185 3.95834 75.1459 1.1784 75.2914 1.1784C75.2914 1.1784 78.5718 5.24618 82.3783 10.2186C86.1848 15.191 89.3556 19.3268 89.4214 19.4085C89.4214 19.6031 88.8634 19.6031 86.2725 19.6031H83.0041L81.8083 17.9689L81.8043 18.037ZM99.701 19.535C97.5147 19.2626 96.4744 18.4261 96.1715 16.7297C95.9722 16.185 95.9722 14.119 95.9722 9.96372V3.98558L96.3309 3.28524C96.59 2.77945 96.8491 2.48764 97.2875 2.19583C98.5431 1.35932 98.9616 1.33986 109.472 1.33986C119.355 1.34375 119.991 1.33986 121.157 1.92348C121.456 2.11802 121.894 2.39037 122.134 2.66272C122.632 3.22688 122.991 4.23848 122.791 4.47192C122.592 4.66646 120.838 4.66645 112.4 4.66645C102.613 4.66645 102.13 4.67619 101.939 4.88045C101.74 5.07499 101.74 5.63915 101.74 10.4267V15.7571L102.059 16.01C102.377 16.2434 102.437 16.2629 112.534 16.2629H122.688L122.686 16.6519C122.686 17.3328 122.427 17.9359 121.948 18.4611C121.35 19.0836 120.573 19.3949 119.164 19.57C117.968 19.7645 100.747 19.7645 99.5894 19.5661L99.701 19.535ZM130.952 13.6055L130.972 7.54951H139.502C146.242 7.54951 148.048 7.55145 148.126 7.74405C148.325 7.95804 148.325 10.2925 148.126 10.559C147.926 10.773 147.807 10.7925 142.639 10.7925H137.276L137.017 11.0648C136.758 11.3372 136.758 11.4344 136.758 13.7027C136.758 16.0236 136.764 16.0742 137.037 16.3251L137.316 16.578H146.697C153.833 16.578 156.113 16.578 156.225 16.7725C156.225 16.7725 156.424 17.3951 156.424 18.3678V19.8268H131.002V13.7689L130.952 13.6055ZM130.972 4.61588C130.972 4.61588 130.972 3.77937 130.952 2.9234V1.38656H156.5V4.69369H143.751C133.346 4.69369 130.994 4.69564 130.944 4.49916L130.972 4.61588ZM3.64908 19.5311C1.75578 19.2782 0.595889 18.5195 0.221215 17.2589C0.0219211 16.7142 0.0219211 16.5391 0.221215 16.4029C0.42051 16.2084 1.87536 16.2084 11.2402 16.2084H22.1137L22.3728 15.8971C22.592 15.6248 22.6319 15.4302 22.6319 14.0879C22.6319 12.7845 22.6319 12.5511 22.3927 12.2982L22.1536 12.0258H13.2132C3.96396 12.0258 3.76866 12.0258 2.77816 11.4422C1.30339 10.703 0.845008 9.35676 0.984514 6.05741C0.984514 3.92333 1.26352 3.28914 2.04077 2.55378C2.67851 1.95072 3.29633 1.69781 4.65153 1.50327C5.20955 1.50327 8.54773 1.30873 14.5206 1.50327C23.4968 1.50327 23.5387 1.50328 24.3418 1.79508C25.418 2.14525 26.2351 2.70941 26.6656 3.39029C26.9845 3.89609 27.0044 3.9739 26.8649 4.30461L26.6656 4.65479H16.5992C7.6808 4.65479 6.49899 4.65479 6.26183 4.84933C6.00275 5.04386 5.98282 5.12168 5.98282 6.5418C5.98282 7.65067 5.98282 8.11755 6.18211 8.27318C6.3814 8.48718 6.62056 8.50664 15.1703 8.565C24.5152 8.565 24.7524 8.56499 25.9023 9.22642C27.3173 9.92676 27.676 10.9578 27.676 14.2513C27.676 17.434 27.3173 18.4261 25.8624 19.1478C24.7265 19.712 24.7264 19.712 14.2994 19.7509C8.90646 19.7645 4.12938 19.7509 3.68296 19.7509L3.64908 19.5311ZM35.1515 10.808L35.1475 1.95655L35.9049 1.33403H58.7002L59.5173 1.60638C60.5735 1.95655 61.2711 2.4818 61.6637 3.22104C61.9626 3.80466 61.9825 3.82411 61.9825 6.76747C61.9825 10.0629 61.9825 10.3314 61.2252 11.1057C60.707 11.6504 60.149 11.9616 59.1167 12.234C58.4391 12.4285 57.323 12.4285 49.8794 12.4869C41.4512 12.4869 41.4034 12.4869 41.1324 12.7787C40.8534 13.0316 40.8533 13.051 40.8533 16.3173V19.607H35.1695L35.1635 10.7535L35.1515 10.808ZM55.629 9.11554C55.8682 8.921 56.1273 8.80428 56.207 8.68756C56.207 8.49302 56.4063 7.79268 56.4063 6.91726C56.4063 5.16642 56.207 4.87461 55.4696 4.65284C55.1906 4.65284 52.5101 4.4583 48.2233 4.4583L41.4213 4.45636L41.1623 4.76762C40.9231 5.05943 40.9032 5.2345 40.9032 6.84528V8.61557L41.6206 9.31591H48.4325C54.4791 9.31591 55.2942 9.31591 55.6888 9.08247L55.629 9.11554ZM81.8043 18.0273C80.9474 16.8601 80.4292 16.2959 80.0107 16.0177L79.4327 15.6287H71.5148C65.1832 15.6287 63.6008 15.6287 63.6008 15.4341C63.6008 15.2396 65.1952 13.2923 65.8728 12.6017L66.1916 12.2709H71.4709C75.417 12.2709 76.7901 12.2709 76.8977 12.0764C77.2365 11.7457 76.8977 11.2982 74.6856 8.00083C72.852 5.3843 72.3518 4.58475 72.4395 4.43496C72.7185 3.94861 75.1459 1.16867 75.2914 1.16867C75.2914 1.16867 78.5718 5.23645 82.3783 10.2088C86.1848 15.1812 89.3556 19.3171 89.4214 19.3988C89.4214 19.5933 88.8634 19.5933 86.2725 19.5933H83.0041L81.8083 17.9592L81.8043 18.0273ZM99.701 19.5252C97.5147 19.2529 96.4744 18.4164 96.1715 16.72C95.9722 16.1753 95.9722 14.1093 95.9722 9.95399V3.97585L96.3309 3.27551C96.59 2.76972 96.8491 2.47791 97.2875 2.18611C98.5431 1.3496 98.9616 1.33014 109.472 1.33014C119.355 1.33403 119.991 1.33013 121.157 1.91375C121.456 2.10828 121.894 2.38064 122.134 2.65299C122.632 3.21715 122.991 4.22875 122.791 4.46219C122.592 4.65673 120.838 4.65673 112.4 4.65673C102.613 4.65673 102.13 4.66646 101.939 4.87073C101.74 5.06527 101.74 5.62942 101.74 10.417V15.7473L102.059 16.0002C102.377 16.2337 102.437 16.2531 112.534 16.2531H122.688L122.686 16.6422C122.686 17.3231 122.427 17.9261 121.948 18.4514C121.35 19.0739 120.573 19.3852 119.164 19.5603C117.968 19.7548 100.747 19.7548 99.5894 19.5564L99.701 19.5252ZM130.952 13.5957L130.972 7.53978H139.502C146.242 7.53978 148.048 7.54172 148.126 7.73432C148.325 7.94831 148.325 10.2828 148.126 10.5493C147.926 10.7633 147.807 10.7827 142.639 10.7827H137.276L137.017 11.0551C136.758 11.3274 136.758 11.4247 136.758 13.693C136.758 16.0138 136.764 16.0644 137.037 16.3154L137.316 16.5683H146.697C153.833 16.5683 156.113 16.5683 156.225 16.7628C156.225 16.7628 156.424 17.3853 156.424 18.358V19.8171H131.002V13.7591L130.952 13.5957ZM130.972 4.60615C130.972 4.60615 130.972 3.76964 130.952 2.91367V1.37683H156.5V4.68397H143.751C133.346 4.68397 130.994 4.68591 130.944 4.48943L130.972 4.60615ZM3.54943 19.533C1.5525 19.2801 0.506208 18.5214 0.147479 17.1208C-0.0518158 16.5761 -0.051816 16.5371 0.346773 16.3232C0.605855 16.1092 1.12402 16.1092 11.4395 16.1092C22.0121 16.1092 22.2612 16.1033 22.3827 15.8757C22.3827 15.6812 22.582 14.903 22.582 13.9887C22.582 12.5102 22.5621 12.3157 22.3628 12.2184C22.1635 12.2184 18.7277 12.0239 13.4344 12.0239C3.77264 12.0239 3.7009 12.0239 2.51709 11.1874C1.28146 10.3703 1.08217 9.76724 1.08217 6.61767C1.08217 3.828 1.28146 3.24244 1.97899 2.49153C2.53702 1.94682 3.07511 1.69393 4.20312 1.44103C4.98036 1.24649 6.11634 1.24649 13.9765 1.24649C22.2153 1.2426 22.9448 1.25816 23.8416 1.46048C25.0373 1.73283 25.8146 2.14136 26.4484 2.80279C26.9864 3.3864 27.1459 3.79493 26.9466 4.22291L26.7473 4.51472H16.7626C10.5706 4.51472 6.66241 4.51472 6.46909 4.70926L6.15022 4.9038V6.53791C6.15022 7.97749 6.15022 8.21094 6.36945 8.36657C6.56874 8.56111 7.32606 8.5611 14.8355 8.5611C20.063 8.5611 23.4231 8.56111 24.019 8.75564C25.8325 9.00854 26.841 9.59215 27.383 10.7458C27.6023 11.2321 27.6421 11.5434 27.682 13.8506C27.7019 15.4847 27.672 16.65 27.682 17.0702C27.3432 18.6265 26.1673 19.5136 24.1086 19.7353C22.8531 19.9299 4.74121 19.9299 3.70687 19.7373L3.54943 19.533ZM35.1495 10.7925V1.93321L35.4286 1.68031C35.6278 1.48577 35.8271 1.3885 35.9866 1.33014C36.3453 1.1356 55.2823 1.1356 57.345 1.33597C59.8262 1.53051 61.0339 2.03631 61.7155 3.2833C61.9546 3.73073 61.9746 3.94472 62.0144 6.63323C62.0144 9.8431 62.0144 10.3956 61.3169 11.1737C61.1176 11.4072 60.6592 11.7574 60.3005 11.913C59.025 12.5161 58.4471 12.555 49.6323 12.555C42.4876 12.5589 41.4851 12.555 41.2479 12.7495C40.9889 12.944 40.9689 12.9635 40.9689 16.1092C40.9689 17.86 40.9689 19.3677 40.9689 19.4688C40.9689 19.6634 40.5305 19.6634 38.0612 19.6634H35.2313V10.8041L35.1495 10.7925ZM55.3919 9.11942C56.189 8.90543 56.3285 8.59417 56.3285 6.98924C56.3285 5.37457 56.3286 5.08277 55.6908 4.78707C55.3321 4.59254 54.7741 4.57308 48.4106 4.53417C42.3202 4.53417 41.4931 4.52055 41.236 4.72871C40.957 4.92325 40.957 4.9427 40.957 6.86084C40.957 8.65059 40.9769 8.82762 41.1961 9.0455C41.4353 9.27895 41.5947 9.27895 48.1894 9.27895C52.4423 9.27895 55.1029 9.27895 55.3859 9.08441L55.3919 9.11942ZM82.1551 18.5506C81.6967 17.9475 81.1387 17.1889 80.8995 16.8581C80.6205 16.4885 80.2219 16.1383 79.8632 15.9438L79.2653 15.6325H71.3673C64.2943 15.6325 63.4792 15.6131 63.543 15.438C63.543 15.2435 64.1608 14.6015 64.8384 13.7844L66.074 12.306H71.3753C76.0368 12.306 76.7024 12.3059 76.8698 12.1114C77.0691 11.9169 77.0691 11.8391 77.0691 11.7223C77.0691 11.5278 76.0328 10.0299 74.7533 8.21483C73.4778 6.40563 72.4136 4.82987 72.3877 4.7326C72.3877 4.47971 75.114 1.16672 75.3512 1.21147C75.5505 1.21147 89.541 19.4241 89.541 19.5836C89.541 19.5836 88.0662 19.5836 86.2705 19.5836H83.0021L82.185 18.4942L82.1551 18.5506ZM99.6213 19.5233C97.987 19.3288 96.9408 18.7257 96.3987 17.6557L96.1197 17.0916V10.7283C96.1197 3.50896 96.1197 3.47978 96.9567 2.55962C97.5147 1.976 98.2521 1.62584 99.4319 1.41184C100.628 1.1784 118.528 1.17839 119.77 1.40795C121.544 1.71921 122.594 2.49736 122.983 3.75991C123.262 4.69369 124.198 4.61588 112.719 4.61588C103.621 4.61588 102.417 4.61588 102.178 4.81041L101.919 5.00496V15.5878L102.477 16.0936H112.528C120.647 16.0936 122.62 16.0936 122.795 16.2881C122.995 16.4827 122.995 16.5021 122.795 17.1052C122.556 18.2724 121.859 18.9533 120.487 19.3949C119.87 19.5894 119.112 19.6089 110.076 19.6284C104.715 19.64 99.9999 19.6128 99.6013 19.6284L99.6213 19.5233ZM130.918 13.6113C130.918 7.77712 130.926 7.58453 131.158 7.46586C131.516 7.27132 147.765 7.27132 148.036 7.46586C148.235 7.6604 148.235 7.79657 148.235 9.08052V10.559H142.763C137.716 10.559 137.272 10.559 137.073 10.8314C136.873 11.0259 136.853 11.2982 136.853 13.4576C136.853 15.617 136.873 15.8932 137.073 16.0819C137.272 16.2765 137.87 16.2959 146.818 16.3543H156.35V19.5058H130.914V13.481L130.918 13.6113ZM131.064 4.72677C130.865 4.53223 130.865 4.08479 130.865 3.01483C130.865 1.59471 130.885 1.43908 131.104 1.32236C131.363 1.12782 155.998 1.12782 156.348 1.32236C156.627 1.51689 156.627 4.73649 156.348 4.84348C156.348 4.84348 150.531 4.84348 143.657 4.84348C134.099 4.84348 131.126 4.84349 131.014 4.64895L131.064 4.72677ZM3.17077 19.5311C2.19423 19.3365 1.11804 18.9475 0.69753 18.4028C0.498235 18.1888 0.298941 17.7024 0.199294 17.3328C-1.85905e-07 16.7881 -1.85905e-07 16.613 0.199294 16.3796C0.199294 16.185 0.438448 16.0683 0.558024 16.0489C0.757318 16.0489 5.51846 16.0294 11.3458 16.0547C20.6967 16.0547 21.9682 16.0547 22.1815 15.8602C22.4007 15.6656 22.4206 15.5489 22.4206 14.012C22.4206 12.6503 22.4206 12.3196 22.2213 12.2418C22.2213 12.2418 19.0067 12.0472 14.413 12.0472C10.2178 12.0453 6.17812 12.0472 5.43874 11.8527C3.52552 11.6581 2.60079 11.3858 1.87536 10.6855C1.05825 9.88785 0.898818 9.30424 0.8191 7.01453C0.619806 2.94286 1.37712 1.7231 4.08553 1.17645C5.44074 0.904096 22.1795 0.904099 23.6244 1.16478C24.8799 1.39823 25.7189 1.82621 26.3906 2.546C27.0283 3.24634 27.1678 3.63541 26.9287 4.0634L26.7294 4.37465H16.5275C7.63497 4.37465 6.31364 4.37465 6.214 4.6081C6.214 4.6081 6.0147 5.4057 6.0147 6.1644C6.01271 7.29272 6.0147 7.58453 6.23393 7.77906C6.45315 8.03196 6.49301 8.03196 15.2241 8.07087C23.1281 8.07087 24.0728 8.07087 24.7185 8.32377C26.3926 8.79066 27.1618 9.51044 27.5225 10.8897C27.8016 11.9597 27.7218 16.3582 27.3233 17.2005C27.0243 17.9787 26.267 18.6985 25.3702 19.0486L24.6527 19.321L14.2416 19.3404C8.51385 19.3502 3.46772 19.321 3.02728 19.3404L3.17077 19.5311ZM35.1097 19.5311C35.1097 19.5311 35.1097 15.4964 35.1097 10.6602V1.86901L35.9069 1.16867L47.0494 1.17061C58.9353 1.17256 59.0788 1.18035 60.3304 1.75423C61.0478 2.08495 61.6059 2.62965 61.9247 3.29108C62.1639 3.79688 62.1838 4.03032 62.1838 6.89586V9.96761L61.8649 10.5512C61.3468 11.5045 60.709 11.9324 59.2801 12.341C58.6224 12.5355 57.7057 12.555 50.0189 12.5939C41.5389 12.5939 41.4811 12.5939 41.2699 12.8857C41.0706 13.0997 41.0507 13.4498 41.0507 16.3698V19.607H38.1629C36.5685 19.607 35.2432 19.607 35.1994 19.607L35.1097 19.5311ZM55.5433 8.92489C55.7626 8.92489 56.0216 8.65254 56.0814 8.51636C56.0814 8.32182 56.2807 7.64094 56.2807 6.78497C56.2807 5.11195 56.2807 4.95632 55.344 4.71704C55.0451 4.71704 52.53 4.5225 48.1954 4.5225C41.6665 4.5225 41.4991 4.52833 41.2619 4.75594C41.0427 4.96993 41.0228 5.14502 41.0228 6.68187C41.0228 8.21871 41.0228 8.41325 41.2818 8.69144L41.5409 9.00271H48.3767C53.9968 9.00271 55.2842 9.0027 55.6211 8.80817L55.5433 8.92489ZM82.8227 19.463C82.8227 19.463 82.1451 18.6654 81.5473 17.8483C80.9494 17.0507 80.2518 16.2531 79.9928 16.078L79.5145 15.7668H71.461C64.117 15.7668 63.4115 15.7668 63.4254 15.5139C63.4334 15.3193 64.0233 14.619 64.7408 13.763L66.0362 12.2067H76.8579L76.8559 11.8566C76.8559 11.5842 76.258 10.6699 74.5142 8.15841C73.2187 6.32976 72.2004 4.74816 72.2322 4.66645C72.4315 4.31629 75.128 1.16089 75.2934 1.16089C75.4927 1.16089 89.5091 19.3657 89.5091 19.5972C89.5091 19.7918 83.0699 19.7918 82.8188 19.5972L82.8227 19.463ZM99.2506 19.463C97.7957 19.2685 96.8172 18.6654 96.2691 17.5137C95.9901 16.9301 95.9901 16.9107 95.9503 10.7185C95.9503 3.3864 95.9503 3.39807 96.9667 2.36702C97.4848 1.86122 97.7439 1.7056 98.4813 1.47215L99.3781 1.1998H119.72L120.577 1.47215C121.055 1.66669 121.653 1.88068 121.912 2.07522C122.69 2.61992 123.387 4.13148 123.048 4.52639C122.849 4.72093 121.494 4.72093 112.679 4.72093C105.861 4.72093 102.374 4.72093 102.218 4.91547C101.999 5.11001 101.979 5.22673 101.979 10.3314V15.6248L102.537 16.1306H112.719C124.13 16.1306 123.148 16.1306 122.921 17.0254C122.562 18.6206 121.605 19.3579 119.674 19.5564C118.439 19.7509 100.488 19.7509 99.2466 19.5486L99.2506 19.463ZM130.879 19.463C130.879 19.463 130.879 7.69541 130.871 7.43668C130.871 7.24214 131.807 7.24214 139.578 7.24214C147.334 7.24214 148.213 7.26159 148.279 7.43668C148.478 7.74794 148.279 10.2069 148.279 10.4501C148.08 10.6641 147.96 10.6835 142.772 10.6835C137.551 10.6835 137.382 10.6913 137.146 10.917C136.927 11.1309 136.907 11.306 136.907 13.4576C136.907 15.6053 136.925 15.7784 137.146 15.9983C137.386 16.2317 137.545 16.2317 146.816 16.2317C154.722 16.2317 156.271 16.2317 156.386 16.4263C156.386 16.6208 156.586 17.0682 156.386 18.0604V19.5194H143.663C136.668 19.535 130.904 19.5136 130.859 19.5194L130.879 19.463ZM130.871 4.58086C130.671 4.30851 130.871 1.42352 130.891 1.25038C130.891 1.05584 133.633 1.05584 143.815 1.05584H156.641V4.59643H143.789C132.148 4.59643 130.93 4.6081 130.865 4.40189L130.871 4.58086Z" fill="white"/>
<path d="M201 0.970703C194.935 3.5598 182.195 7.13932 169.81 31.8138C174.455 14.8501 185.774 2.51286 188.871 0.970703H201Z" fill="white"/>
<path d="M175.702 0.970703H165.305L178.301 9.6345L180.9 6.16898L175.702 0.970703Z" fill="white"/>
</svg>
